<svg width="13" height="13" viewBox="0 0 13 13" fill="none" xmlns="http://www.w3.org/2000/svg">
<g clip-path="url(#clip0_9843_69043)">
<path d="M10.834 1.62502H10.2923V0.541687H9.20898V1.62502H3.79232V0.541687H2.70898V1.62502H2.16732C1.57148 1.62502 1.08398 2.11252 1.08398 2.70835V11.375C1.08398 11.9709 1.57148 12.4584 2.16732 12.4584H10.834C11.4298 12.4584 11.9173 11.9709 11.9173 11.375V2.70835C11.9173 2.11252 11.4298 1.62502 10.834 1.62502ZM10.834 11.375H2.16732V4.33335H10.834V11.375Z" fill="#1C4980"/>
<path fill-rule="evenodd" clip-rule="evenodd" d="M3.25065 6.50002C3.25065 6.20087 3.49316 5.95835 3.79232 5.95835H5.41732C5.71647 5.95835 5.95898 6.20087 5.95898 6.50002C5.95898 6.79917 5.71647 7.04169 5.41732 7.04169H3.79232C3.49316 7.04169 3.25065 6.79917 3.25065 6.50002ZM7.04232 6.50002C7.04232 6.20087 7.28483 5.95835 7.58398 5.95835H9.20898C9.50814 5.95835 9.75065 6.20087 9.75065 6.50002C9.75065 6.79917 9.50814 7.04169 9.20898 7.04169H7.58398C7.28483 7.04169 7.04232 6.79917 7.04232 6.50002ZM3.25065 8.66669C3.25065 8.36753 3.49316 8.12502 3.79232 8.12502H5.41732C5.71647 8.12502 5.95898 8.36753 5.95898 8.66669C5.95898 8.96584 5.71647 9.20835 5.41732 9.20835H3.79232C3.49316 9.20835 3.25065 8.96584 3.25065 8.66669ZM7.04232 8.66669C7.04232 8.36753 7.28483 8.12502 7.58398 8.12502H9.20898C9.50814 8.12502 9.75065 8.36753 9.75065 8.66669C9.75065 8.96584 9.50814 9.20835 9.20898 9.20835H7.58398C7.28483 9.20835 7.04232 8.96584 7.04232 8.66669Z" fill="#1C4980"/>
</g>
<defs>
<clipPath id="clip0_9843_69043">
<rect width="13" height="13" fill="white"/>
</clipPath>
</defs>
</svg>
