<svg width="16" height="14" viewBox="0 0 16 14" fill="none" xmlns="http://www.w3.org/2000/svg">
<path d="M5.21688 13.095C10.8775 13.095 13.9731 8.40562 13.9731 4.33875C13.9731 4.20562 13.9731 4.07312 13.9644 3.94125C14.5668 3.5054 15.0868 2.96572 15.5 2.3475C14.9384 2.59666 14.3426 2.76014 13.7325 2.8325C14.3748 2.44768 14.8554 1.84267 15.085 1.13C14.481 1.4884 13.8203 1.74099 13.1312 1.87687C12.6672 1.38346 12.0535 1.05673 11.3851 0.947252C10.7167 0.83777 10.0308 0.951633 9.43358 1.27122C8.83639 1.59081 8.36117 2.09831 8.08146 2.71519C7.80175 3.33208 7.73314 4.02395 7.88625 4.68375C6.66275 4.62242 5.46582 4.30451 4.37315 3.75064C3.28048 3.19676 2.31649 2.41931 1.54375 1.46875C1.15031 2.14629 1.02986 2.9483 1.20694 3.71152C1.38401 4.47474 1.84529 5.14179 2.49688 5.57687C2.00706 5.56225 1.52795 5.42998 1.1 5.19125V5.23062C1.10019 5.94112 1.34612 6.62969 1.79608 7.17955C2.24604 7.72941 2.87233 8.10672 3.56875 8.2475C3.11572 8.37091 2.64043 8.38887 2.17937 8.3C2.376 8.9115 2.75882 9.44627 3.2743 9.82952C3.78978 10.2128 4.41215 10.4253 5.05437 10.4375C4.41625 10.9389 3.68557 11.3095 2.90409 11.5283C2.12262 11.7471 1.30568 11.8097 0.5 11.7125C1.90722 12.6158 3.54467 13.0951 5.21688 13.0931" fill="#fff"/>
</svg>
