<svg width="140" height="55" viewBox="0 0 140 55" fill="none" xmlns="http://www.w3.org/2000/svg">
<g clip-path="url(#clip0_13493_128459)">
<path d="M27.6127 55.0046C42.8627 55.0046 55.2253 42.6914 55.2253 27.5023C55.2253 12.3132 42.8627 0 27.6127 0C12.3626 0 0 12.3132 0 27.5023C0 42.6914 12.3626 55.0046 27.6127 55.0046Z" fill="white"/>
<path d="M19.9537 39.4914V36.8765C18.3063 39.3687 16.2885 40.4308 13.2822 40.4308C8.50492 40.4308 5.82812 37.6931 5.82812 32.7904V17.4282H11.5933V31.6061C11.5933 34.262 12.8291 35.5694 15.2996 35.5694C18.1411 35.5694 19.9527 33.8539 19.9527 31.2389V17.4282H25.7179V39.4914H19.9527H19.9537Z" fill="#1C4980"/>
<path d="M36.9596 17.4282V20.6154C38.6069 18.1231 40.6248 17.0605 43.631 17.0605C48.4083 17.0605 51.0851 19.7982 51.0851 24.701V39.4914H45.3199V25.8857C45.3199 23.2708 44.0842 21.9224 41.6136 21.9224C38.7721 21.9224 36.9605 23.6384 36.9605 26.2534V39.4914H31.1953V17.4282H36.9605H36.9596Z" fill="#1C4980"/>
<path d="M70.2773 24.5374C70.2362 22.5355 68.8768 21.5548 66.1179 21.5548C64.1 21.5548 62.7822 22.3719 62.7822 23.598C62.7822 24.497 63.1938 24.8237 64.8 25.3141L72.0894 27.3978C75.0135 28.2558 76.4546 30.0946 76.4546 32.9545C76.4546 35.1195 75.4662 37.1628 73.8188 38.4703C72.1715 39.7778 69.8242 40.4313 66.7358 40.4313C59.9822 40.4313 56.3991 37.939 56.2344 33.0772H61.8764C62.1237 34.262 62.3706 34.7114 62.9884 35.1609C63.7295 35.6922 64.8826 35.9376 66.4063 35.9376C69.0831 35.9376 70.6889 35.12 70.6889 33.7721C70.6889 32.8732 70.1947 32.4237 68.7536 31.9742L61.8764 29.8496C59.7348 29.1547 59.0348 28.7875 58.2522 28.0109C57.4696 27.1528 57.0165 25.8863 57.0165 24.4156C57.0165 19.8805 60.517 17.0615 66.159 17.0615C72.1304 17.0615 75.7541 19.8805 75.8367 24.5383H70.2773V24.5374Z" fill="white"/>
<path d="M90.2876 21.677H87.0755V33.6894C87.0755 35.6504 87.4465 36.0998 88.9702 36.0998C89.4233 36.0998 89.7112 36.0589 90.288 35.9771V39.9809C89.2175 40.3077 88.2701 40.4304 86.9523 40.4304C83.1634 40.4304 81.3103 38.7148 81.3103 35.2418V21.6775H78.4688V17.8777H81.3103V11.9534H87.0755V17.8777H90.2876V21.6775V21.677Z" fill="white"/>
<path d="M114.631 28.9088C114.631 36.018 110.43 40.4308 103.636 40.4308C96.7996 40.4308 92.6406 36.0184 92.6406 28.7457C92.6406 21.5138 96.8 17.0605 103.595 17.0605C110.555 17.0605 114.632 21.432 114.632 28.9093L114.631 28.9088ZM98.4058 28.7452C98.4058 32.9944 100.506 35.8134 103.636 35.8134C106.725 35.8134 108.866 32.9535 108.866 28.8265C108.866 24.4955 106.807 21.6765 103.636 21.6765C100.506 21.6765 98.4058 24.4955 98.4058 28.7447V28.7452Z" fill="white"/>
<path d="M124.516 20.6967C125.916 18.2453 127.892 17.0601 130.693 17.0601C133.37 17.0601 136.129 18.4494 137.611 20.5331C139.094 22.5759 140 25.6807 140 28.7861C140 35.4867 136.047 40.4712 130.693 40.4712C127.892 40.4712 125.916 39.3273 124.516 36.876V48.3979H118.75V17.4282H124.516V20.6967ZM124.516 28.7865C124.516 32.9131 126.451 35.6916 129.375 35.6916C132.258 35.6916 134.234 32.9131 134.234 28.8683C134.234 24.6191 132.299 21.841 129.375 21.841C126.451 21.841 124.516 24.6191 124.516 28.787V28.7865Z" fill="white"/>
</g>
<defs>
<clipPath id="clip0_13493_128459">
<rect width="140" height="55" fill="white"/>
</clipPath>
</defs>
</svg>
